<svg width="700" height="320" viewBox="0 0 700 320" fill="none" xmlns="http://www.w3.org/2000/svg">
<rect width="700" height="320" rx="11" fill="url(#paint0_linear_57_54)"/>
<path d="M348 83.75C358.313 83.75 366.75 92.1875 366.75 102.5C366.75 112.813 358.313 121.25 348 121.25C337.687 121.25 329.25 112.813 329.25 102.5C329.25 92.1875 337.687 83.75 348 83.75ZM348 177.5C373.313 177.5 402.375 189.594 404.25 196.25H291.75C293.906 189.5 322.781 177.5 348 177.5ZM348 65C327.281 65 310.5 81.7812 310.5 102.5C310.5 123.219 327.281 140 348 140C368.719 140 385.5 123.219 385.5 102.5C385.5 81.7812 368.719 65 348 65ZM348 158.75C322.969 158.75 273 171.312 273 196.25V215H423V196.25C423 171.312 373.031 158.75 348 158.75Z" fill="url(#paint1_linear_57_54)"/>
<defs>
<linearGradient id="paint0_linear_57_54" x1="350" y1="0" x2="350" y2="320" gradientUnits="userSpaceOnUse">
<stop stop-color="#1C332F"/>
<stop offset="1" stop-color="#1E454D"/>
</linearGradient>
<linearGradient id="paint1_linear_57_54" x1="348" y1="65" x2="348" y2="215" gradientUnits="userSpaceOnUse">
<stop stop-color="#01D475"/>
<stop offset="1" stop-color="#03BFB2"/>
</linearGradient>
</defs>
</svg>
