<svg width="700" height="320" viewBox="0 0 700 320" fill="none" xmlns="http://www.w3.org/2000/svg">
<rect width="700" height="320" rx="11" fill="url(#paint0_linear_57_55)"/>
<path d="M350 103.75C360.313 103.75 368.75 112.187 368.75 122.5C368.75 132.813 360.313 141.25 350 141.25C339.687 141.25 331.25 132.813 331.25 122.5C331.25 112.187 339.687 103.75 350 103.75ZM350 197.5C375.313 197.5 404.375 209.594 406.25 216.25H293.75C295.906 209.5 324.781 197.5 350 197.5ZM350 85C329.281 85 312.5 101.781 312.5 122.5C312.5 143.219 329.281 160 350 160C370.719 160 387.5 143.219 387.5 122.5C387.5 101.781 370.719 85 350 85ZM350 178.75C324.969 178.75 275 191.312 275 216.25V235H425V216.25C425 191.312 375.031 178.75 350 178.75Z" fill="url(#paint1_linear_57_55)"/>
<defs>
<linearGradient id="paint0_linear_57_55" x1="350" y1="0" x2="350" y2="320" gradientUnits="userSpaceOnUse">
<stop stop-color="#E1F6EF"/>
<stop offset="1" stop-color="#C6F7E5"/>
</linearGradient>
<linearGradient id="paint1_linear_57_55" x1="350" y1="85" x2="350" y2="235" gradientUnits="userSpaceOnUse">
<stop stop-color="#01D475"/>
<stop offset="1" stop-color="#03BFB2"/>
</linearGradient>
</defs>
</svg>
